<?xml version="1.0" encoding="UTF-8"?>
<svg xmlns="http://www.w3.org/2000/svg" width="1100" height="480" viewBox="0 0 1100 480" font-family="Helvetica,Arial,sans-serif">
<rect width="1100" height="480" fill="white"/>
<text x="550.0" y="26" font-size="16" font-weight="bold" text-anchor="middle">C1 gate outcome per task: n_retrieved vs min_neighbors=3</text>
<line x1="60" y1="396.0" x2="1076" y2="396.0" stroke="#e5e7eb"/>
<text x="52" y="400.0" font-size="11" text-anchor="end">0</text>
<line x1="60" y1="328.0" x2="1076" y2="328.0" stroke="#e5e7eb"/>
<text x="52" y="332.0" font-size="11" text-anchor="end">1</text>
<line x1="60" y1="260.0" x2="1076" y2="260.0" stroke="#e5e7eb"/>
<text x="52" y="264.0" font-size="11" text-anchor="end">2</text>
<line x1="60" y1="192.0" x2="1076" y2="192.0" stroke="#e5e7eb"/>
<text x="52" y="196.0" font-size="11" text-anchor="end">2</text>
<line x1="60" y1="124.0" x2="1076" y2="124.0" stroke="#e5e7eb"/>
<text x="52" y="128.0" font-size="11" text-anchor="end">3</text>
<line x1="60" y1="56.0" x2="1076" y2="56.0" stroke="#e5e7eb"/>
<text x="52" y="60.0" font-size="11" text-anchor="end">4</text>
<text x="18" y="226.0" font-size="12" text-anchor="middle" transform="rotate(-90 18 226.0)">n_retrieved</text>
<line x1="60" y1="134.5" x2="1076" y2="134.5" stroke="#dc2626" stroke-width="1.5" stroke-dasharray="7 4"/>
<text x="66" y="129.5" font-size="11" fill="#dc2626">min_neighbors = 3</text>
<rect x="65.9" y="396.0" width="30.5" height="0.0" fill="#93c5fd" rx="2"/>
<text x="81.2" y="414" font-size="10" text-anchor="middle">T01</text>
<rect x="108.3" y="396.0" width="30.5" height="0.0" fill="#93c5fd" rx="2"/>
<text x="123.5" y="414" font-size="10" text-anchor="middle">T05</text>
<rect x="150.6" y="396.0" width="30.5" height="0.0" fill="#93c5fd" rx="2"/>
<text x="165.8" y="414" font-size="10" text-anchor="middle">T09</text>
<rect x="192.9" y="396.0" width="30.5" height="0.0" fill="#93c5fd" rx="2"/>
<text x="208.2" y="414" font-size="10" text-anchor="middle">T13</text>
<rect x="235.3" y="396.0" width="30.5" height="0.0" fill="#93c5fd" rx="2"/>
<text x="250.5" y="414" font-size="10" text-anchor="middle">T17</text>
<rect x="277.6" y="396.0" width="30.5" height="0.0" fill="#93c5fd" rx="2"/>
<text x="292.8" y="414" font-size="10" text-anchor="middle">T21</text>
<rect x="319.9" y="396.0" width="30.5" height="0.0" fill="#93c5fd" rx="2"/>
<text x="335.2" y="414" font-size="10" text-anchor="middle">T02</text>
<rect x="362.3" y="308.8" width="30.5" height="87.2" fill="#3b82f6" rx="2"/>
<text x="377.5" y="304.8" font-size="9" text-anchor="middle">1</text>
<text x="377.5" y="414" font-size="10" text-anchor="middle">T06</text>
<rect x="404.6" y="396.0" width="30.5" height="0.0" fill="#93c5fd" rx="2"/>
<text x="419.8" y="414" font-size="10" text-anchor="middle">T10</text>
<rect x="446.9" y="396.0" width="30.5" height="0.0" fill="#93c5fd" rx="2"/>
<text x="462.2" y="414" font-size="10" text-anchor="middle">T14</text>
<rect x="489.3" y="308.8" width="30.5" height="87.2" fill="#3b82f6" rx="2"/>
<text x="504.5" y="304.8" font-size="9" text-anchor="middle">1</text>
<text x="504.5" y="414" font-size="10" text-anchor="middle">T18</text>
<rect x="531.6" y="396.0" width="30.5" height="0.0" fill="#93c5fd" rx="2"/>
<text x="546.8" y="414" font-size="10" text-anchor="middle">T22</text>
<rect x="573.9" y="396.0" width="30.5" height="0.0" fill="#93c5fd" rx="2"/>
<text x="589.2" y="414" font-size="10" text-anchor="middle">T03</text>
<rect x="616.3" y="221.6" width="30.5" height="174.4" fill="#3b82f6" rx="2"/>
<text x="631.5" y="217.6" font-size="9" text-anchor="middle">2</text>
<text x="631.5" y="414" font-size="10" text-anchor="middle">T07</text>
<rect x="658.6" y="396.0" width="30.5" height="0.0" fill="#93c5fd" rx="2"/>
<text x="673.8" y="414" font-size="10" text-anchor="middle">T11</text>
<rect x="700.9" y="396.0" width="30.5" height="0.0" fill="#93c5fd" rx="2"/>
<text x="716.2" y="414" font-size="10" text-anchor="middle">T15</text>
<rect x="743.3" y="221.6" width="30.5" height="174.4" fill="#3b82f6" rx="2"/>
<text x="758.5" y="217.6" font-size="9" text-anchor="middle">2</text>
<text x="758.5" y="414" font-size="10" text-anchor="middle">T19</text>
<rect x="785.6" y="396.0" width="30.5" height="0.0" fill="#93c5fd" rx="2"/>
<text x="800.8" y="414" font-size="10" text-anchor="middle">T23</text>
<rect x="827.9" y="396.0" width="30.5" height="0.0" fill="#93c5fd" rx="2"/>
<text x="843.2" y="414" font-size="10" text-anchor="middle">T04</text>
<rect x="870.3" y="134.5" width="30.5" height="261.5" fill="#f59e0b" rx="2"/>
<text x="885.5" y="130.5" font-size="9" text-anchor="middle">3</text>
<text x="885.5" y="414" font-size="10" text-anchor="middle">T08</text>
<rect x="912.6" y="396.0" width="30.5" height="0.0" fill="#93c5fd" rx="2"/>
<text x="927.8" y="414" font-size="10" text-anchor="middle">T12</text>
<rect x="954.9" y="396.0" width="30.5" height="0.0" fill="#93c5fd" rx="2"/>
<text x="970.2" y="414" font-size="10" text-anchor="middle">T16</text>
<rect x="997.3" y="129.5" width="30.5" height="266.5" fill="#ef4444" rx="2"/>
<text x="1012.5" y="130.5" font-size="9" text-anchor="middle">3</text>
<text x="1012.5" y="414" font-size="10" text-anchor="middle">T20</text>
<rect x="1039.6" y="396.0" width="30.5" height="0.0" fill="#93c5fd" rx="2"/>
<text x="1054.8" y="414" font-size="10" text-anchor="middle">T24</text>
<rect x="60" y="432" width="12" height="12" fill="#93c5fd" rx="2"/>
<text x="77" y="442" font-size="12">gated n=0</text>
<rect x="175" y="432" width="12" height="12" fill="#3b82f6" rx="2"/>
<text x="192" y="442" font-size="12">gated 0&lt;n&lt;3</text>
<rect x="308" y="432" width="12" height="12" fill="#f59e0b" rx="2"/>
<text x="325" y="442" font-size="12">modulated n&gt;=3</text>
<rect x="468" y="432" width="12" height="12" fill="#ef4444" rx="2"/>
<text x="485" y="442" font-size="12">modulated+flip</text>
</svg>