<?xml version="1.0" encoding="UTF-8"?>
<svg xmlns="http://www.w3.org/2000/svg" width="860" height="480" viewBox="0 0 860 480" font-family="Helvetica,Arial,sans-serif">
<rect width="860" height="480" fill="white"/>
<text x="430.0" y="26" font-size="17" font-weight="bold" text-anchor="middle">B vs C execution cost per task (USD)</text>
<line x1="78" y1="406.0" x2="836" y2="406.0" stroke="#e5e7eb"/>
<text x="70" y="410.0" font-size="11" text-anchor="end">0</text>
<line x1="78" y1="336.0" x2="836" y2="336.0" stroke="#e5e7eb"/>
<text x="70" y="340.0" font-size="11" text-anchor="end">0.001</text>
<line x1="78" y1="266.0" x2="836" y2="266.0" stroke="#e5e7eb"/>
<text x="70" y="270.0" font-size="11" text-anchor="end">0.002</text>
<line x1="78" y1="196.0" x2="836" y2="196.0" stroke="#e5e7eb"/>
<text x="70" y="200.0" font-size="11" text-anchor="end">0.003</text>
<line x1="78" y1="126.0" x2="836" y2="126.0" stroke="#e5e7eb"/>
<text x="70" y="130.0" font-size="11" text-anchor="end">0.004</text>
<line x1="78" y1="56.0" x2="836" y2="56.0" stroke="#e5e7eb"/>
<text x="70" y="60.0" font-size="11" text-anchor="end">0.005</text>
<text x="16" y="231.0" font-size="12" text-anchor="middle" transform="rotate(-90 16 231.0)">exec cost (USD)</text>
<rect x="82.4" y="398.0" width="11.4" height="8.0" fill="#3b82f6" rx="2"/>
<text x="88.1" y="394.0" font-size="9" text-anchor="middle">0.000</text>
<rect x="93.8" y="392.7" width="11.4" height="13.3" fill="#f59e0b" rx="2"/>
<text x="99.5" y="388.7" font-size="9" text-anchor="middle">0.000</text>
<text x="93.8" y="424" font-size="12" text-anchor="middle">T01</text>
<rect x="114.0" y="369.7" width="11.4" height="36.3" fill="#3b82f6" rx="2"/>
<text x="119.7" y="365.7" font-size="9" text-anchor="middle">0.001</text>
<rect x="125.4" y="369.7" width="11.4" height="36.3" fill="#f59e0b" rx="2"/>
<text x="131.1" y="365.7" font-size="9" text-anchor="middle">0.001</text>
<text x="125.4" y="424" font-size="12" text-anchor="middle">T05</text>
<rect x="145.6" y="386.1" width="11.4" height="19.9" fill="#3b82f6" rx="2"/>
<text x="151.3" y="382.1" font-size="9" text-anchor="middle">0.000</text>
<rect x="157.0" y="386.5" width="11.4" height="19.5" fill="#f59e0b" rx="2"/>
<text x="162.6" y="382.5" font-size="9" text-anchor="middle">0.000</text>
<text x="157.0" y="424" font-size="12" text-anchor="middle">T09</text>
<rect x="177.2" y="87.3" width="11.4" height="318.7" fill="#3b82f6" rx="2"/>
<text x="182.9" y="83.3" font-size="9" text-anchor="middle">0.005</text>
<rect x="188.5" y="369.8" width="11.4" height="36.2" fill="#f59e0b" rx="2"/>
<text x="194.2" y="365.8" font-size="9" text-anchor="middle">0.001</text>
<text x="188.5" y="424" font-size="12" text-anchor="middle">T13</text>
<rect x="208.8" y="369.5" width="11.4" height="36.5" fill="#3b82f6" rx="2"/>
<text x="214.4" y="365.5" font-size="9" text-anchor="middle">0.001</text>
<rect x="220.1" y="369.5" width="11.4" height="36.5" fill="#f59e0b" rx="2"/>
<text x="225.8" y="365.5" font-size="9" text-anchor="middle">0.001</text>
<text x="220.1" y="424" font-size="12" text-anchor="middle">T17</text>
<rect x="240.3" y="400.3" width="11.4" height="5.7" fill="#3b82f6" rx="2"/>
<text x="246.0" y="396.3" font-size="9" text-anchor="middle">0.000</text>
<rect x="251.7" y="401.8" width="11.4" height="4.2" fill="#f59e0b" rx="2"/>
<text x="257.4" y="397.8" font-size="9" text-anchor="middle">0.000</text>
<text x="251.7" y="424" font-size="12" text-anchor="middle">T21</text>
<rect x="271.9" y="394.4" width="11.4" height="11.6" fill="#3b82f6" rx="2"/>
<text x="277.6" y="390.4" font-size="9" text-anchor="middle">0.000</text>
<rect x="283.3" y="397.9" width="11.4" height="8.1" fill="#f59e0b" rx="2"/>
<text x="289.0" y="393.9" font-size="9" text-anchor="middle">0.000</text>
<text x="283.3" y="424" font-size="12" text-anchor="middle">T02</text>
<rect x="303.5" y="369.7" width="11.4" height="36.3" fill="#3b82f6" rx="2"/>
<text x="309.2" y="365.7" font-size="9" text-anchor="middle">0.001</text>
<rect x="314.9" y="86.6" width="11.4" height="319.4" fill="#f59e0b" rx="2"/>
<text x="320.6" y="82.6" font-size="9" text-anchor="middle">0.005</text>
<text x="314.9" y="424" font-size="12" text-anchor="middle">T06</text>
<rect x="335.1" y="382.2" width="11.4" height="23.8" fill="#3b82f6" rx="2"/>
<text x="340.8" y="378.2" font-size="9" text-anchor="middle">0.000</text>
<rect x="346.5" y="391.2" width="11.4" height="14.8" fill="#f59e0b" rx="2"/>
<text x="352.1" y="387.2" font-size="9" text-anchor="middle">0.000</text>
<text x="346.5" y="424" font-size="12" text-anchor="middle">T10</text>
<rect x="366.7" y="318.1" width="11.4" height="87.9" fill="#3b82f6" rx="2"/>
<text x="372.4" y="314.1" font-size="9" text-anchor="middle">0.001</text>
<rect x="378.0" y="318.1" width="11.4" height="87.9" fill="#f59e0b" rx="2"/>
<text x="383.7" y="314.1" font-size="9" text-anchor="middle">0.001</text>
<text x="378.0" y="424" font-size="12" text-anchor="middle">T14</text>
<rect x="398.3" y="369.2" width="11.4" height="36.8" fill="#3b82f6" rx="2"/>
<text x="403.9" y="365.2" font-size="9" text-anchor="middle">0.001</text>
<rect x="409.6" y="369.2" width="11.4" height="36.8" fill="#f59e0b" rx="2"/>
<text x="415.3" y="365.2" font-size="9" text-anchor="middle">0.001</text>
<text x="409.6" y="424" font-size="12" text-anchor="middle">T18</text>
<rect x="429.8" y="87.8" width="11.4" height="318.2" fill="#3b82f6" rx="2"/>
<text x="435.5" y="83.8" font-size="9" text-anchor="middle">0.005</text>
<rect x="441.2" y="319.6" width="11.4" height="86.5" fill="#f59e0b" rx="2"/>
<text x="446.9" y="315.6" font-size="9" text-anchor="middle">0.001</text>
<text x="441.2" y="424" font-size="12" text-anchor="middle">T22</text>
<rect x="461.4" y="392.2" width="11.4" height="13.8" fill="#3b82f6" rx="2"/>
<text x="467.1" y="388.2" font-size="9" text-anchor="middle">0.000</text>
<rect x="472.8" y="386.5" width="11.4" height="19.5" fill="#f59e0b" rx="2"/>
<text x="478.5" y="382.5" font-size="9" text-anchor="middle">0.000</text>
<text x="472.8" y="424" font-size="12" text-anchor="middle">T03</text>
<rect x="493.0" y="369.5" width="11.4" height="36.5" fill="#3b82f6" rx="2"/>
<text x="498.7" y="365.5" font-size="9" text-anchor="middle">0.001</text>
<rect x="504.4" y="369.5" width="11.4" height="36.5" fill="#f59e0b" rx="2"/>
<text x="510.1" y="365.5" font-size="9" text-anchor="middle">0.001</text>
<text x="504.4" y="424" font-size="12" text-anchor="middle">T07</text>
<rect x="524.6" y="319.3" width="11.4" height="86.7" fill="#3b82f6" rx="2"/>
<text x="530.3" y="315.3" font-size="9" text-anchor="middle">0.001</text>
<rect x="536.0" y="319.3" width="11.4" height="86.7" fill="#f59e0b" rx="2"/>
<text x="541.6" y="315.3" font-size="9" text-anchor="middle">0.001</text>
<text x="536.0" y="424" font-size="12" text-anchor="middle">T11</text>
<rect x="556.2" y="338.6" width="11.4" height="67.4" fill="#3b82f6" rx="2"/>
<text x="561.9" y="334.6" font-size="9" text-anchor="middle">0.001</text>
<rect x="567.5" y="324.3" width="11.4" height="81.7" fill="#f59e0b" rx="2"/>
<text x="573.2" y="320.3" font-size="9" text-anchor="middle">0.001</text>
<text x="567.5" y="424" font-size="12" text-anchor="middle">T15</text>
<rect x="587.8" y="368.5" width="11.4" height="37.5" fill="#3b82f6" rx="2"/>
<text x="593.4" y="364.5" font-size="9" text-anchor="middle">0.001</text>
<rect x="599.1" y="74.9" width="11.4" height="331.1" fill="#f59e0b" rx="2"/>
<text x="604.8" y="70.9" font-size="9" text-anchor="middle">0.005</text>
<text x="599.1" y="424" font-size="12" text-anchor="middle">T19</text>
<rect x="619.3" y="87.5" width="11.4" height="318.5" fill="#3b82f6" rx="2"/>
<text x="625.0" y="83.5" font-size="9" text-anchor="middle">0.005</text>
<rect x="630.7" y="87.5" width="11.4" height="318.5" fill="#f59e0b" rx="2"/>
<text x="636.4" y="83.5" font-size="9" text-anchor="middle">0.005</text>
<text x="630.7" y="424" font-size="12" text-anchor="middle">T23</text>
<rect x="650.9" y="390.5" width="11.4" height="15.5" fill="#3b82f6" rx="2"/>
<text x="656.6" y="386.5" font-size="9" text-anchor="middle">0.000</text>
<rect x="662.3" y="388.8" width="11.4" height="17.2" fill="#f59e0b" rx="2"/>
<text x="668.0" y="384.8" font-size="9" text-anchor="middle">0.000</text>
<text x="662.3" y="424" font-size="12" text-anchor="middle">T04</text>
<rect x="682.5" y="369.5" width="11.4" height="36.5" fill="#3b82f6" rx="2"/>
<text x="688.2" y="365.5" font-size="9" text-anchor="middle">0.001</text>
<rect x="693.9" y="369.5" width="11.4" height="36.5" fill="#f59e0b" rx="2"/>
<text x="699.6" y="365.5" font-size="9" text-anchor="middle">0.001</text>
<text x="693.9" y="424" font-size="12" text-anchor="middle">T08</text>
<rect x="714.1" y="368.3" width="11.4" height="37.7" fill="#3b82f6" rx="2"/>
<text x="719.8" y="364.3" font-size="9" text-anchor="middle">0.001</text>
<rect x="725.5" y="368.3" width="11.4" height="37.7" fill="#f59e0b" rx="2"/>
<text x="731.1" y="364.3" font-size="9" text-anchor="middle">0.001</text>
<text x="725.5" y="424" font-size="12" text-anchor="middle">T12</text>
<rect x="745.7" y="368.6" width="11.4" height="37.4" fill="#3b82f6" rx="2"/>
<text x="751.4" y="364.6" font-size="9" text-anchor="middle">0.001</text>
<rect x="757.0" y="368.6" width="11.4" height="37.4" fill="#f59e0b" rx="2"/>
<text x="762.7" y="364.6" font-size="9" text-anchor="middle">0.001</text>
<text x="757.0" y="424" font-size="12" text-anchor="middle">T16</text>
<rect x="777.3" y="368.5" width="11.4" height="37.5" fill="#3b82f6" rx="2"/>
<text x="782.9" y="364.5" font-size="9" text-anchor="middle">0.001</text>
<rect x="788.6" y="368.5" width="11.4" height="37.5" fill="#f59e0b" rx="2"/>
<text x="794.3" y="364.5" font-size="9" text-anchor="middle">0.001</text>
<text x="788.6" y="424" font-size="12" text-anchor="middle">T20</text>
<rect x="808.8" y="87.3" width="11.4" height="318.7" fill="#3b82f6" rx="2"/>
<text x="814.5" y="83.3" font-size="9" text-anchor="middle">0.005</text>
<rect x="820.2" y="87.3" width="11.4" height="318.7" fill="#f59e0b" rx="2"/>
<text x="825.9" y="83.3" font-size="9" text-anchor="middle">0.005</text>
<text x="820.2" y="424" font-size="12" text-anchor="middle">T24</text>
<rect x="78" y="442" width="12" height="12" fill="#3b82f6" rx="2"/>
<text x="95" y="452" font-size="12">B</text>
<rect x="121" y="442" width="12" height="12" fill="#f59e0b" rx="2"/>
<text x="138" y="452" font-size="12">C</text>
</svg>