<?xml version="1.0" encoding="UTF-8"?>
<svg xmlns="http://www.w3.org/2000/svg" width="860" height="480" viewBox="0 0 860 480" font-family="Helvetica,Arial,sans-serif">
<rect width="860" height="480" fill="white"/>
<text x="430.0" y="26" font-size="17" font-weight="bold" text-anchor="middle">B vs C quality per task (paired by task_id)</text>
<line x1="78" y1="406.0" x2="836" y2="406.0" stroke="#e5e7eb"/>
<text x="70" y="410.0" font-size="11" text-anchor="end">0</text>
<line x1="78" y1="336.0" x2="836" y2="336.0" stroke="#e5e7eb"/>
<text x="70" y="340.0" font-size="11" text-anchor="end">1</text>
<line x1="78" y1="266.0" x2="836" y2="266.0" stroke="#e5e7eb"/>
<text x="70" y="270.0" font-size="11" text-anchor="end">2</text>
<line x1="78" y1="196.0" x2="836" y2="196.0" stroke="#e5e7eb"/>
<text x="70" y="200.0" font-size="11" text-anchor="end">3</text>
<line x1="78" y1="126.0" x2="836" y2="126.0" stroke="#e5e7eb"/>
<text x="70" y="130.0" font-size="11" text-anchor="end">4</text>
<line x1="78" y1="56.0" x2="836" y2="56.0" stroke="#e5e7eb"/>
<text x="70" y="60.0" font-size="11" text-anchor="end">5</text>
<text x="16" y="231.0" font-size="12" text-anchor="middle" transform="rotate(-90 16 231.0)">quality score</text>
<rect x="82.4" y="56.0" width="11.4" height="350.0" fill="#3b82f6" rx="2"/>
<text x="88.1" y="52.0" font-size="9" text-anchor="middle">5</text>
<rect x="93.8" y="56.0" width="11.4" height="350.0" fill="#f59e0b" rx="2"/>
<text x="99.5" y="52.0" font-size="9" text-anchor="middle">5</text>
<text x="93.8" y="424" font-size="12" text-anchor="middle">T01</text>
<rect x="114.0" y="336.0" width="11.4" height="70.0" fill="#3b82f6" rx="2"/>
<text x="119.7" y="332.0" font-size="9" text-anchor="middle">1</text>
<rect x="125.4" y="336.0" width="11.4" height="70.0" fill="#f59e0b" rx="2"/>
<text x="131.1" y="332.0" font-size="9" text-anchor="middle">1</text>
<text x="125.4" y="424" font-size="12" text-anchor="middle">T05</text>
<rect x="145.6" y="56.0" width="11.4" height="350.0" fill="#3b82f6" rx="2"/>
<text x="151.3" y="52.0" font-size="9" text-anchor="middle">5</text>
<rect x="157.0" y="56.0" width="11.4" height="350.0" fill="#f59e0b" rx="2"/>
<text x="162.6" y="52.0" font-size="9" text-anchor="middle">5</text>
<text x="157.0" y="424" font-size="12" text-anchor="middle">T09</text>
<rect x="177.2" y="126.0" width="11.4" height="280.0" fill="#3b82f6" rx="2"/>
<text x="182.9" y="122.0" font-size="9" text-anchor="middle">4</text>
<rect x="188.5" y="126.0" width="11.4" height="280.0" fill="#f59e0b" rx="2"/>
<text x="194.2" y="122.0" font-size="9" text-anchor="middle">4</text>
<text x="188.5" y="424" font-size="12" text-anchor="middle">T13</text>
<rect x="208.8" y="336.0" width="11.4" height="70.0" fill="#3b82f6" rx="2"/>
<text x="214.4" y="332.0" font-size="9" text-anchor="middle">1</text>
<rect x="220.1" y="196.0" width="11.4" height="210.0" fill="#f59e0b" rx="2"/>
<text x="225.8" y="192.0" font-size="9" text-anchor="middle">3</text>
<text x="220.1" y="424" font-size="12" text-anchor="middle">T17</text>
<rect x="240.3" y="56.0" width="11.4" height="350.0" fill="#3b82f6" rx="2"/>
<text x="246.0" y="52.0" font-size="9" text-anchor="middle">5</text>
<rect x="251.7" y="56.0" width="11.4" height="350.0" fill="#f59e0b" rx="2"/>
<text x="257.4" y="52.0" font-size="9" text-anchor="middle">5</text>
<text x="251.7" y="424" font-size="12" text-anchor="middle">T21</text>
<rect x="271.9" y="56.0" width="11.4" height="350.0" fill="#3b82f6" rx="2"/>
<text x="277.6" y="52.0" font-size="9" text-anchor="middle">5</text>
<rect x="283.3" y="56.0" width="11.4" height="350.0" fill="#f59e0b" rx="2"/>
<text x="289.0" y="52.0" font-size="9" text-anchor="middle">5</text>
<text x="283.3" y="424" font-size="12" text-anchor="middle">T02</text>
<rect x="303.5" y="336.0" width="11.4" height="70.0" fill="#3b82f6" rx="2"/>
<text x="309.2" y="332.0" font-size="9" text-anchor="middle">1</text>
<rect x="314.9" y="336.0" width="11.4" height="70.0" fill="#f59e0b" rx="2"/>
<text x="320.6" y="332.0" font-size="9" text-anchor="middle">1</text>
<text x="314.9" y="424" font-size="12" text-anchor="middle">T06</text>
<rect x="335.1" y="56.0" width="11.4" height="350.0" fill="#3b82f6" rx="2"/>
<text x="340.8" y="52.0" font-size="9" text-anchor="middle">5</text>
<rect x="346.5" y="56.0" width="11.4" height="350.0" fill="#f59e0b" rx="2"/>
<text x="352.1" y="52.0" font-size="9" text-anchor="middle">5</text>
<text x="346.5" y="424" font-size="12" text-anchor="middle">T10</text>
<rect x="366.7" y="126.0" width="11.4" height="280.0" fill="#3b82f6" rx="2"/>
<text x="372.4" y="122.0" font-size="9" text-anchor="middle">4</text>
<rect x="378.0" y="126.0" width="11.4" height="280.0" fill="#f59e0b" rx="2"/>
<text x="383.7" y="122.0" font-size="9" text-anchor="middle">4</text>
<text x="378.0" y="424" font-size="12" text-anchor="middle">T14</text>
<rect x="398.3" y="336.0" width="11.4" height="70.0" fill="#3b82f6" rx="2"/>
<text x="403.9" y="332.0" font-size="9" text-anchor="middle">1</text>
<rect x="409.6" y="336.0" width="11.4" height="70.0" fill="#f59e0b" rx="2"/>
<text x="415.3" y="332.0" font-size="9" text-anchor="middle">1</text>
<text x="409.6" y="424" font-size="12" text-anchor="middle">T18</text>
<rect x="429.8" y="336.0" width="11.4" height="70.0" fill="#3b82f6" rx="2"/>
<text x="435.5" y="332.0" font-size="9" text-anchor="middle">1</text>
<rect x="441.2" y="266.0" width="11.4" height="140.0" fill="#f59e0b" rx="2"/>
<text x="446.9" y="262.0" font-size="9" text-anchor="middle">2</text>
<text x="441.2" y="424" font-size="12" text-anchor="middle">T22</text>
<rect x="461.4" y="56.0" width="11.4" height="350.0" fill="#3b82f6" rx="2"/>
<text x="467.1" y="52.0" font-size="9" text-anchor="middle">5</text>
<rect x="472.8" y="56.0" width="11.4" height="350.0" fill="#f59e0b" rx="2"/>
<text x="478.5" y="52.0" font-size="9" text-anchor="middle">5</text>
<text x="472.8" y="424" font-size="12" text-anchor="middle">T03</text>
<rect x="493.0" y="336.0" width="11.4" height="70.0" fill="#3b82f6" rx="2"/>
<text x="498.7" y="332.0" font-size="9" text-anchor="middle">1</text>
<rect x="504.4" y="336.0" width="11.4" height="70.0" fill="#f59e0b" rx="2"/>
<text x="510.1" y="332.0" font-size="9" text-anchor="middle">1</text>
<text x="504.4" y="424" font-size="12" text-anchor="middle">T07</text>
<rect x="524.6" y="196.0" width="11.4" height="210.0" fill="#3b82f6" rx="2"/>
<text x="530.3" y="192.0" font-size="9" text-anchor="middle">3</text>
<rect x="536.0" y="196.0" width="11.4" height="210.0" fill="#f59e0b" rx="2"/>
<text x="541.6" y="192.0" font-size="9" text-anchor="middle">3</text>
<text x="536.0" y="424" font-size="12" text-anchor="middle">T11</text>
<rect x="556.2" y="56.0" width="11.4" height="350.0" fill="#3b82f6" rx="2"/>
<text x="561.9" y="52.0" font-size="9" text-anchor="middle">5</text>
<rect x="567.5" y="56.0" width="11.4" height="350.0" fill="#f59e0b" rx="2"/>
<text x="573.2" y="52.0" font-size="9" text-anchor="middle">5</text>
<text x="567.5" y="424" font-size="12" text-anchor="middle">T15</text>
<rect x="587.8" y="336.0" width="11.4" height="70.0" fill="#3b82f6" rx="2"/>
<text x="593.4" y="332.0" font-size="9" text-anchor="middle">1</text>
<rect x="599.1" y="336.0" width="11.4" height="70.0" fill="#f59e0b" rx="2"/>
<text x="604.8" y="332.0" font-size="9" text-anchor="middle">1</text>
<text x="599.1" y="424" font-size="12" text-anchor="middle">T19</text>
<rect x="619.3" y="336.0" width="11.4" height="70.0" fill="#3b82f6" rx="2"/>
<text x="625.0" y="332.0" font-size="9" text-anchor="middle">1</text>
<rect x="630.7" y="336.0" width="11.4" height="70.0" fill="#f59e0b" rx="2"/>
<text x="636.4" y="332.0" font-size="9" text-anchor="middle">1</text>
<text x="630.7" y="424" font-size="12" text-anchor="middle">T23</text>
<rect x="650.9" y="56.0" width="11.4" height="350.0" fill="#3b82f6" rx="2"/>
<text x="656.6" y="52.0" font-size="9" text-anchor="middle">5</text>
<rect x="662.3" y="56.0" width="11.4" height="350.0" fill="#f59e0b" rx="2"/>
<text x="668.0" y="52.0" font-size="9" text-anchor="middle">5</text>
<text x="662.3" y="424" font-size="12" text-anchor="middle">T04</text>
<rect x="682.5" y="336.0" width="11.4" height="70.0" fill="#3b82f6" rx="2"/>
<text x="688.2" y="332.0" font-size="9" text-anchor="middle">1</text>
<rect x="693.9" y="336.0" width="11.4" height="70.0" fill="#f59e0b" rx="2"/>
<text x="699.6" y="332.0" font-size="9" text-anchor="middle">1</text>
<text x="693.9" y="424" font-size="12" text-anchor="middle">T08</text>
<rect x="714.1" y="336.0" width="11.4" height="70.0" fill="#3b82f6" rx="2"/>
<text x="719.8" y="332.0" font-size="9" text-anchor="middle">1</text>
<rect x="725.5" y="336.0" width="11.4" height="70.0" fill="#f59e0b" rx="2"/>
<text x="731.1" y="332.0" font-size="9" text-anchor="middle">1</text>
<text x="725.5" y="424" font-size="12" text-anchor="middle">T12</text>
<rect x="745.7" y="336.0" width="11.4" height="70.0" fill="#3b82f6" rx="2"/>
<text x="751.4" y="332.0" font-size="9" text-anchor="middle">1</text>
<rect x="757.0" y="336.0" width="11.4" height="70.0" fill="#f59e0b" rx="2"/>
<text x="762.7" y="332.0" font-size="9" text-anchor="middle">1</text>
<text x="757.0" y="424" font-size="12" text-anchor="middle">T16</text>
<rect x="777.3" y="336.0" width="11.4" height="70.0" fill="#3b82f6" rx="2"/>
<text x="782.9" y="332.0" font-size="9" text-anchor="middle">1</text>
<rect x="788.6" y="336.0" width="11.4" height="70.0" fill="#f59e0b" rx="2"/>
<text x="794.3" y="332.0" font-size="9" text-anchor="middle">1</text>
<text x="788.6" y="424" font-size="12" text-anchor="middle">T20</text>
<rect x="808.8" y="336.0" width="11.4" height="70.0" fill="#3b82f6" rx="2"/>
<text x="814.5" y="332.0" font-size="9" text-anchor="middle">1</text>
<rect x="820.2" y="336.0" width="11.4" height="70.0" fill="#f59e0b" rx="2"/>
<text x="825.9" y="332.0" font-size="9" text-anchor="middle">1</text>
<text x="820.2" y="424" font-size="12" text-anchor="middle">T24</text>
<rect x="78" y="442" width="12" height="12" fill="#3b82f6" rx="2"/>
<text x="95" y="452" font-size="12">B</text>
<rect x="121" y="442" width="12" height="12" fill="#f59e0b" rx="2"/>
<text x="138" y="452" font-size="12">C</text>
</svg>